<?xml version="1.0" encoding="UTF-8" standalone="no"?>
<!-- Created with Inkscape (http://www.inkscape.org/) -->

<svg
   xmlns:dc="http://purl.org/dc/elements/1.1/"
   xmlns:cc="http://creativecommons.org/ns#"
   xmlns:rdf="http://www.w3.org/1999/02/22-rdf-syntax-ns#"
   xmlns:svg="http://www.w3.org/2000/svg"
   xmlns="http://www.w3.org/2000/svg"
   xmlns:sodipodi="http://sodipodi.sourceforge.net/DTD/sodipodi-0.dtd"
   xmlns:inkscape="http://www.inkscape.org/namespaces/inkscape"
   id="svg3390"
   version="1.1"
   inkscape:version="0.91 r13725"
   width="16.331141"
   height="16.338257"
   viewBox="0 0 16.33114 16.338257"
   sodipodi:docname="boolean-party-logo.svg"
   inkscape:export-filename="/home/glasshands/Design/Boolean Party/Logo3.png"
   inkscape:export-xdpi="90"
   inkscape:export-ydpi="90">
  <metadata
     id="metadata3396">
    <rdf:RDF>
      <cc:Work
         rdf:about="">
        <dc:format>image/svg+xml</dc:format>
        <dc:type
           rdf:resource="http://purl.org/dc/dcmitype/StillImage" />
        <dc:title></dc:title>
      </cc:Work>
    </rdf:RDF>
  </metadata>
  <defs
     id="defs3394">
    <inkscape:perspective
       sodipodi:type="inkscape:persp3d"
       inkscape:vp_x="153.04188 : 1268.6844 : 1"
       inkscape:vp_y="28.911409 : -1026.6942 : 0"
       inkscape:vp_z="-607.07908 : 1319.7878 : 1"
       inkscape:persp3d-origin="-213.41622 : 1612.4708 : 1"
       id="perspective4241" />
    <mask
       maskUnits="userSpaceOnUse"
       id="mask5074">
      <path
         style="fill:#ffffff;fill-opacity:1;fill-rule:evenodd;stroke:none;stroke-width:3.125;stroke-linecap:butt;stroke-linejoin:round;stroke-miterlimit:4;stroke-dasharray:none;stroke-opacity:1"
         d="m 404.20256,1084.8364 -27.46469,79.1356 c 0,0 25.53243,25.6495 57.72239,0 z"
         id="path5076"
         inkscape:connector-curvature="0"
         sodipodi:nodetypes="cccc" />
    </mask>
    <mask
       maskUnits="userSpaceOnUse"
       id="mask5074-0">
      <path
         style="fill:#ffffff;fill-opacity:1;fill-rule:evenodd;stroke:none;stroke-width:3.125;stroke-linecap:butt;stroke-linejoin:round;stroke-miterlimit:4;stroke-dasharray:none;stroke-opacity:1"
         d="m 404.20256,1084.8364 -27.46469,79.1356 c 0,0 25.53243,25.6495 57.72239,0 z"
         id="path5076-8"
         inkscape:connector-curvature="0"
         sodipodi:nodetypes="cccc" />
    </mask>
    <mask
       maskUnits="userSpaceOnUse"
       id="mask5074-04">
      <path
         style="fill:#ffffff;fill-opacity:1;fill-rule:evenodd;stroke:none;stroke-width:3.125;stroke-linecap:butt;stroke-linejoin:round;stroke-miterlimit:4;stroke-dasharray:none;stroke-opacity:1"
         d="m 404.20256,1084.8364 -27.46469,79.1356 c 0,0 25.53243,25.6495 57.72239,0 z"
         id="path5076-2"
         inkscape:connector-curvature="0"
         sodipodi:nodetypes="cccc" />
    </mask>
    <mask
       maskUnits="userSpaceOnUse"
       id="mask5074-9">
      <path
         style="fill:#ffffff;fill-opacity:1;fill-rule:evenodd;stroke:none;stroke-width:3.125;stroke-linecap:butt;stroke-linejoin:round;stroke-miterlimit:4;stroke-dasharray:none;stroke-opacity:1"
         d="m 404.20256,1084.8364 -27.46469,79.1356 c 0,0 25.53243,25.6495 57.72239,0 z"
         id="path5076-3"
         inkscape:connector-curvature="0"
         sodipodi:nodetypes="cccc" />
    </mask>
    <mask
       maskUnits="userSpaceOnUse"
       id="mask5074-9-1">
      <path
         style="fill:#ffffff;fill-opacity:1;fill-rule:evenodd;stroke:none;stroke-width:3.125;stroke-linecap:butt;stroke-linejoin:round;stroke-miterlimit:4;stroke-dasharray:none;stroke-opacity:1"
         d="m 404.20256,1084.8364 -27.46469,79.1356 c 0,0 25.53243,25.6495 57.72239,0 z"
         id="path5076-3-6"
         inkscape:connector-curvature="0"
         sodipodi:nodetypes="cccc" />
    </mask>
    <mask
       maskUnits="userSpaceOnUse"
       id="mask5074-0-4">
      <path
         style="fill:#ffffff;fill-opacity:1;fill-rule:evenodd;stroke:none;stroke-width:3.125;stroke-linecap:butt;stroke-linejoin:round;stroke-miterlimit:4;stroke-dasharray:none;stroke-opacity:1"
         d="m 404.20256,1084.8364 -27.46469,79.1356 c 0,0 25.53243,25.6495 57.72239,0 z"
         id="path5076-8-8"
         inkscape:connector-curvature="0"
         sodipodi:nodetypes="cccc" />
    </mask>
    <mask
       maskUnits="userSpaceOnUse"
       id="mask5074-9-7">
      <path
         style="fill:#ffffff;fill-opacity:1;fill-rule:evenodd;stroke:none;stroke-width:3.125;stroke-linecap:butt;stroke-linejoin:round;stroke-miterlimit:4;stroke-dasharray:none;stroke-opacity:1"
         d="m 404.20256,1084.8364 -27.46469,79.1356 c 0,0 25.53243,25.6495 57.72239,0 z"
         id="path5076-3-69"
         inkscape:connector-curvature="0"
         sodipodi:nodetypes="cccc" />
    </mask>
    <filter
       style="color-interpolation-filters:sRGB"
       inkscape:label="Blur"
       id="filter4615"
       height="1"
       width="1"
       y="0"
       x="0">
      <feGaussianBlur
         stdDeviation="3.6 3.6"
         result="fbSourceGraphic"
         id="feGaussianBlur4617" />
      <feColorMatrix
         result="fbSourceGraphicAlpha"
         in="fbSourceGraphic"
         values="0 0 0 -1 0 0 0 0 -1 0 0 0 0 -1 0 0 0 0 1 0"
         id="feColorMatrix4619" />
      <feGaussianBlur
         id="feGaussianBlur4621"
         stdDeviation="3.6 3.6"
         result="blur"
         in="fbSourceGraphic" />
      <feColorMatrix
         id="feColorMatrix4623"
         values="1 0 0 0 0 0 1 0 0 0 0 0 1 0 0 0 0 0 50 0 "
         result="colormatrix" />
      <feComposite
         id="feComposite4625"
         in2="fbSourceGraphic"
         in="colormatrix"
         operator="in" />
    </filter>
    <mask
       maskUnits="userSpaceOnUse"
       id="mask4603">
      <path
         style="fill:#ffffff;fill-opacity:1;stroke:none;stroke-width:5.17111492;stroke-miterlimit:4;stroke-dasharray:none;stroke-opacity:1"
         d="m -597.18985,-91.85783 c 1.05338,-9.00254 -0.17176,-18.1255 -3.56343,-26.53104 -9.56366,-23.67327 -34.37609,-37.43773 -59.52295,-33.01978 l 10.06019,24.60657 10.61932,-4.28581 12.94356,32.07784 c 2.5769,6.38646 2.72253,11.79016 0.63648,16.66281 l -2.8e-4,0.001 c -1.44133,3.38899 -3.93306,6.37251 -7.45376,8.75025 1.16155,1.27654 1.69512,3.0036 1.45594,4.71284 -0.19972,1.40258 -0.90547,2.68372 -1.98399,3.60223 l 6.47263,15.89825 c 16.7253,-8.02167 28.17472,-24.0529 30.33629,-42.47598 z m -34.58504,44.2601 -6.64821,-16.32936 c -0.0511,-0.004 -0.1022,-0.01 -0.15274,-0.0159 -2.69514,-0.38197 -4.76288,-2.5857 -4.97367,-5.29962 -4.85685,1.1847 -9.30134,0.97065 -13.20686,-0.73784 l 0,-0.004 -0.001,-0.001 c -5.08808,-2.2418 -8.94179,-6.74254 -11.68506,-13.54126 l -12.46434,-30.89142 12.09784,-4.88052 -10.21037,-25.05677 c -22.63227,13.76083 -31.97336,41.8846 -22.07115,66.4514 11.02784,27.26465 41.81665,40.72515 69.31953,30.30573 z m -43.18473,-98.99826 10.4213,25.57222 10.04798,-4.05455 -10.34422,-25.30051 c -2.1512,0.55629 -4.26621,1.24457 -6.33281,2.06098 -1.28575,0.52506 -2.55064,1.09946 -3.79225,1.72186 z m 44.41939,59.14866 c 0.47225,-2.88018 -0.0199,-6.20943 -1.58583,-10.09112 l -10.45466,-25.91146 -30.88108,12.45842 10.16878,25.20399 c 2.2226,5.50842 5.13407,8.84098 8.67692,10.35962 3.54285,1.51863 7.93369,1.31918 13.40417,-0.88806 5.26551,-2.12459 8.43547,-4.93241 9.87836,-8.38752 l 5.6e-4,-0.004 0,-0.004 c 0.36722,-0.86407 0.63266,-1.77481 0.79008,-2.73489 z"
         id="path4605"
         inkscape:connector-curvature="0"
         sodipodi:nodetypes="ccccccccccccccccccccsccccccccccccccccsscccsccc" />
    </mask>
    <mask
       maskUnits="userSpaceOnUse"
       id="mask4603-0">
      <path
         style="fill:#ffffff;fill-opacity:1;stroke:none;stroke-width:5.17111492;stroke-miterlimit:4;stroke-dasharray:none;stroke-opacity:1"
         d="m -597.18985,-91.85783 c 1.05338,-9.00254 -0.17176,-18.1255 -3.56343,-26.53104 -9.56366,-23.67327 -34.37609,-37.43773 -59.52295,-33.01978 l 10.06019,24.60657 10.61932,-4.28581 12.94356,32.07784 c 2.5769,6.38646 2.72253,11.79016 0.63648,16.66281 l -2.8e-4,0.001 c -1.44133,3.38899 -3.93306,6.37251 -7.45376,8.75025 1.16155,1.27654 1.69512,3.0036 1.45594,4.71284 -0.19972,1.40258 -0.90547,2.68372 -1.98399,3.60223 l 6.47263,15.89825 c 16.7253,-8.02167 28.17472,-24.0529 30.33629,-42.47598 z m -34.58504,44.2601 -6.64821,-16.32936 c -0.0511,-0.004 -0.1022,-0.01 -0.15274,-0.0159 -2.69514,-0.38197 -4.76288,-2.5857 -4.97367,-5.29962 -4.85685,1.1847 -9.30134,0.97065 -13.20686,-0.73784 l 0,-0.004 -0.001,-0.001 c -5.08808,-2.2418 -8.94179,-6.74254 -11.68506,-13.54126 l -12.46434,-30.89142 12.09784,-4.88052 -10.21037,-25.05677 c -22.63227,13.76083 -31.97336,41.8846 -22.07115,66.4514 11.02784,27.26465 41.81665,40.72515 69.31953,30.30573 z m -43.18473,-98.99826 10.4213,25.57222 10.04798,-4.05455 -10.34422,-25.30051 c -2.1512,0.55629 -4.26621,1.24457 -6.33281,2.06098 -1.28575,0.52506 -2.55064,1.09946 -3.79225,1.72186 z m 44.41939,59.14866 c 0.47225,-2.88018 -0.0199,-6.20943 -1.58583,-10.09112 l -10.45466,-25.91146 -30.88108,12.45842 10.16878,25.20399 c 2.2226,5.50842 5.13407,8.84098 8.67692,10.35962 3.54285,1.51863 7.93369,1.31918 13.40417,-0.88806 5.26551,-2.12459 8.43547,-4.93241 9.87836,-8.38752 l 5.6e-4,-0.004 0,-0.004 c 0.36722,-0.86407 0.63266,-1.77481 0.79008,-2.73489 z"
         id="path4605-1"
         inkscape:connector-curvature="0"
         sodipodi:nodetypes="ccccccccccccccccccccsccccccccccccccccsscccsccc" />
    </mask>
    <mask
       maskUnits="userSpaceOnUse"
       id="mask4603-2">
      <path
         style="fill:#ffffff;fill-opacity:1;stroke:none;stroke-width:5.17111492;stroke-miterlimit:4;stroke-dasharray:none;stroke-opacity:1"
         d="m -597.18985,-91.85783 c 1.05338,-9.00254 -0.17176,-18.1255 -3.56343,-26.53104 -9.56366,-23.67327 -34.37609,-37.43773 -59.52295,-33.01978 l 10.06019,24.60657 10.61932,-4.28581 12.94356,32.07784 c 2.5769,6.38646 2.72253,11.79016 0.63648,16.66281 l -2.8e-4,0.001 c -1.44133,3.38899 -3.93306,6.37251 -7.45376,8.75025 1.16155,1.27654 1.69512,3.0036 1.45594,4.71284 -0.19972,1.40258 -0.90547,2.68372 -1.98399,3.60223 l 6.47263,15.89825 c 16.7253,-8.02167 28.17472,-24.0529 30.33629,-42.47598 z m -34.58504,44.2601 -6.64821,-16.32936 c -0.0511,-0.004 -0.1022,-0.01 -0.15274,-0.0159 -2.69514,-0.38197 -4.76288,-2.5857 -4.97367,-5.29962 -4.85685,1.1847 -9.30134,0.97065 -13.20686,-0.73784 l 0,-0.004 -0.001,-0.001 c -5.08808,-2.2418 -8.94179,-6.74254 -11.68506,-13.54126 l -12.46434,-30.89142 12.09784,-4.88052 -10.21037,-25.05677 c -22.63227,13.76083 -31.97336,41.8846 -22.07115,66.4514 11.02784,27.26465 41.81665,40.72515 69.31953,30.30573 z m -43.18473,-98.99826 10.4213,25.57222 10.04798,-4.05455 -10.34422,-25.30051 c -2.1512,0.55629 -4.26621,1.24457 -6.33281,2.06098 -1.28575,0.52506 -2.55064,1.09946 -3.79225,1.72186 z m 44.41939,59.14866 c 0.47225,-2.88018 -0.0199,-6.20943 -1.58583,-10.09112 l -10.45466,-25.91146 -30.88108,12.45842 10.16878,25.20399 c 2.2226,5.50842 5.13407,8.84098 8.67692,10.35962 3.54285,1.51863 7.93369,1.31918 13.40417,-0.88806 5.26551,-2.12459 8.43547,-4.93241 9.87836,-8.38752 l 5.6e-4,-0.004 0,-0.004 c 0.36722,-0.86407 0.63266,-1.77481 0.79008,-2.73489 z"
         id="path4605-11"
         inkscape:connector-curvature="0"
         sodipodi:nodetypes="ccccccccccccccccccccsccccccccccccccccsscccsccc" />
    </mask>
    <mask
       maskUnits="userSpaceOnUse"
       id="mask4603-6">
      <path
         style="fill:#ffffff;fill-opacity:1;stroke:none;stroke-width:5.17111492;stroke-miterlimit:4;stroke-dasharray:none;stroke-opacity:1"
         d="m -597.18985,-91.85783 c 1.05338,-9.00254 -0.17176,-18.1255 -3.56343,-26.53104 -9.56366,-23.67327 -34.37609,-37.43773 -59.52295,-33.01978 l 10.06019,24.60657 10.61932,-4.28581 12.94356,32.07784 c 2.5769,6.38646 2.72253,11.79016 0.63648,16.66281 l -2.8e-4,0.001 c -1.44133,3.38899 -3.93306,6.37251 -7.45376,8.75025 1.16155,1.27654 1.69512,3.0036 1.45594,4.71284 -0.19972,1.40258 -0.90547,2.68372 -1.98399,3.60223 l 6.47263,15.89825 c 16.7253,-8.02167 28.17472,-24.0529 30.33629,-42.47598 z m -34.58504,44.2601 -6.64821,-16.32936 c -0.0511,-0.004 -0.1022,-0.01 -0.15274,-0.0159 -2.69514,-0.38197 -4.76288,-2.5857 -4.97367,-5.29962 -4.85685,1.1847 -9.30134,0.97065 -13.20686,-0.73784 l 0,-0.004 -0.001,-0.001 c -5.08808,-2.2418 -8.94179,-6.74254 -11.68506,-13.54126 l -12.46434,-30.89142 12.09784,-4.88052 -10.21037,-25.05677 c -22.63227,13.76083 -31.97336,41.8846 -22.07115,66.4514 11.02784,27.26465 41.81665,40.72515 69.31953,30.30573 z m -43.18473,-98.99826 10.4213,25.57222 10.04798,-4.05455 -10.34422,-25.30051 c -2.1512,0.55629 -4.26621,1.24457 -6.33281,2.06098 -1.28575,0.52506 -2.55064,1.09946 -3.79225,1.72186 z m 44.41939,59.14866 c 0.47225,-2.88018 -0.0199,-6.20943 -1.58583,-10.09112 l -10.45466,-25.91146 -30.88108,12.45842 10.16878,25.20399 c 2.2226,5.50842 5.13407,8.84098 8.67692,10.35962 3.54285,1.51863 7.93369,1.31918 13.40417,-0.88806 5.26551,-2.12459 8.43547,-4.93241 9.87836,-8.38752 l 5.6e-4,-0.004 0,-0.004 c 0.36722,-0.86407 0.63266,-1.77481 0.79008,-2.73489 z"
         id="path4605-14"
         inkscape:connector-curvature="0"
         sodipodi:nodetypes="ccccccccccccccccccccsccccccccccccccccsscccsccc" />
    </mask>
    <mask
       maskUnits="userSpaceOnUse"
       id="mask4603-9">
      <path
         style="fill:#ffffff;fill-opacity:1;stroke:none;stroke-width:5.17111492;stroke-miterlimit:4;stroke-dasharray:none;stroke-opacity:1"
         d="m -597.18985,-91.85783 c 1.05338,-9.00254 -0.17176,-18.1255 -3.56343,-26.53104 -9.56366,-23.67327 -34.37609,-37.43773 -59.52295,-33.01978 l 10.06019,24.60657 10.61932,-4.28581 12.94356,32.07784 c 2.5769,6.38646 2.72253,11.79016 0.63648,16.66281 l -2.8e-4,0.001 c -1.44133,3.38899 -3.93306,6.37251 -7.45376,8.75025 1.16155,1.27654 1.69512,3.0036 1.45594,4.71284 -0.19972,1.40258 -0.90547,2.68372 -1.98399,3.60223 l 6.47263,15.89825 c 16.7253,-8.02167 28.17472,-24.0529 30.33629,-42.47598 z m -34.58504,44.2601 -6.64821,-16.32936 c -0.0511,-0.004 -0.1022,-0.01 -0.15274,-0.0159 -2.69514,-0.38197 -4.76288,-2.5857 -4.97367,-5.29962 -4.85685,1.1847 -9.30134,0.97065 -13.20686,-0.73784 l 0,-0.004 -0.001,-0.001 c -5.08808,-2.2418 -8.94179,-6.74254 -11.68506,-13.54126 l -12.46434,-30.89142 12.09784,-4.88052 -10.21037,-25.05677 c -22.63227,13.76083 -31.97336,41.8846 -22.07115,66.4514 11.02784,27.26465 41.81665,40.72515 69.31953,30.30573 z m -43.18473,-98.99826 10.4213,25.57222 10.04798,-4.05455 -10.34422,-25.30051 c -2.1512,0.55629 -4.26621,1.24457 -6.33281,2.06098 -1.28575,0.52506 -2.55064,1.09946 -3.79225,1.72186 z m 44.41939,59.14866 c 0.47225,-2.88018 -0.0199,-6.20943 -1.58583,-10.09112 l -10.45466,-25.91146 -30.88108,12.45842 10.16878,25.20399 c 2.2226,5.50842 5.13407,8.84098 8.67692,10.35962 3.54285,1.51863 7.93369,1.31918 13.40417,-0.88806 5.26551,-2.12459 8.43547,-4.93241 9.87836,-8.38752 l 5.6e-4,-0.004 0,-0.004 c 0.36722,-0.86407 0.63266,-1.77481 0.79008,-2.73489 z"
         id="path4605-8"
         inkscape:connector-curvature="0"
         sodipodi:nodetypes="ccccccccccccccccccccsccccccccccccccccsscccsccc" />
    </mask>
    <mask
       maskUnits="userSpaceOnUse"
       id="mask4603-9-4">
      <path
         style="fill:#ffffff;fill-opacity:1;stroke:none;stroke-width:5.17111492;stroke-miterlimit:4;stroke-dasharray:none;stroke-opacity:1"
         d="m -597.18985,-91.85783 c 1.05338,-9.00254 -0.17176,-18.1255 -3.56343,-26.53104 -9.56366,-23.67327 -34.37609,-37.43773 -59.52295,-33.01978 l 10.06019,24.60657 10.61932,-4.28581 12.94356,32.07784 c 2.5769,6.38646 2.72253,11.79016 0.63648,16.66281 l -2.8e-4,0.001 c -1.44133,3.38899 -3.93306,6.37251 -7.45376,8.75025 1.16155,1.27654 1.69512,3.0036 1.45594,4.71284 -0.19972,1.40258 -0.90547,2.68372 -1.98399,3.60223 l 6.47263,15.89825 c 16.7253,-8.02167 28.17472,-24.0529 30.33629,-42.47598 z m -34.58504,44.2601 -6.64821,-16.32936 c -0.0511,-0.004 -0.1022,-0.01 -0.15274,-0.0159 -2.69514,-0.38197 -4.76288,-2.5857 -4.97367,-5.29962 -4.85685,1.1847 -9.30134,0.97065 -13.20686,-0.73784 l 0,-0.004 -0.001,-0.001 c -5.08808,-2.2418 -8.94179,-6.74254 -11.68506,-13.54126 l -12.46434,-30.89142 12.09784,-4.88052 -10.21037,-25.05677 c -22.63227,13.76083 -31.97336,41.8846 -22.07115,66.4514 11.02784,27.26465 41.81665,40.72515 69.31953,30.30573 z m -43.18473,-98.99826 10.4213,25.57222 10.04798,-4.05455 -10.34422,-25.30051 c -2.1512,0.55629 -4.26621,1.24457 -6.33281,2.06098 -1.28575,0.52506 -2.55064,1.09946 -3.79225,1.72186 z m 44.41939,59.14866 c 0.47225,-2.88018 -0.0199,-6.20943 -1.58583,-10.09112 l -10.45466,-25.91146 -30.88108,12.45842 10.16878,25.20399 c 2.2226,5.50842 5.13407,8.84098 8.67692,10.35962 3.54285,1.51863 7.93369,1.31918 13.40417,-0.88806 5.26551,-2.12459 8.43547,-4.93241 9.87836,-8.38752 l 5.6e-4,-0.004 0,-0.004 c 0.36722,-0.86407 0.63266,-1.77481 0.79008,-2.73489 z"
         id="path4605-8-9"
         inkscape:connector-curvature="0"
         sodipodi:nodetypes="ccccccccccccccccccccsccccccccccccccccsscccsccc" />
    </mask>
    <mask
       maskUnits="userSpaceOnUse"
       id="mask4603-9-4-4">
      <path
         style="fill:#ffffff;fill-opacity:1;stroke:none;stroke-width:5.17111492;stroke-miterlimit:4;stroke-dasharray:none;stroke-opacity:1"
         d="m -597.18985,-91.85783 c 1.05338,-9.00254 -0.17176,-18.1255 -3.56343,-26.53104 -9.56366,-23.67327 -34.37609,-37.43773 -59.52295,-33.01978 l 10.06019,24.60657 10.61932,-4.28581 12.94356,32.07784 c 2.5769,6.38646 2.72253,11.79016 0.63648,16.66281 l -2.8e-4,0.001 c -1.44133,3.38899 -3.93306,6.37251 -7.45376,8.75025 1.16155,1.27654 1.69512,3.0036 1.45594,4.71284 -0.19972,1.40258 -0.90547,2.68372 -1.98399,3.60223 l 6.47263,15.89825 c 16.7253,-8.02167 28.17472,-24.0529 30.33629,-42.47598 z m -34.58504,44.2601 -6.64821,-16.32936 c -0.0511,-0.004 -0.1022,-0.01 -0.15274,-0.0159 -2.69514,-0.38197 -4.76288,-2.5857 -4.97367,-5.29962 -4.85685,1.1847 -9.30134,0.97065 -13.20686,-0.73784 l 0,-0.004 -0.001,-0.001 c -5.08808,-2.2418 -8.94179,-6.74254 -11.68506,-13.54126 l -12.46434,-30.89142 12.09784,-4.88052 -10.21037,-25.05677 c -22.63227,13.76083 -31.97336,41.8846 -22.07115,66.4514 11.02784,27.26465 41.81665,40.72515 69.31953,30.30573 z m -43.18473,-98.99826 10.4213,25.57222 10.04798,-4.05455 -10.34422,-25.30051 c -2.1512,0.55629 -4.26621,1.24457 -6.33281,2.06098 -1.28575,0.52506 -2.55064,1.09946 -3.79225,1.72186 z m 44.41939,59.14866 c 0.47225,-2.88018 -0.0199,-6.20943 -1.58583,-10.09112 l -10.45466,-25.91146 -30.88108,12.45842 10.16878,25.20399 c 2.2226,5.50842 5.13407,8.84098 8.67692,10.35962 3.54285,1.51863 7.93369,1.31918 13.40417,-0.88806 5.26551,-2.12459 8.43547,-4.93241 9.87836,-8.38752 l 5.6e-4,-0.004 0,-0.004 c 0.36722,-0.86407 0.63266,-1.77481 0.79008,-2.73489 z"
         id="path4605-8-9-0"
         inkscape:connector-curvature="0"
         sodipodi:nodetypes="ccccccccccccccccccccsccccccccccccccccsscccsccc" />
    </mask>
    <mask
       maskUnits="userSpaceOnUse"
       id="mask4603-9-4-4-5">
      <path
         style="fill:#ffffff;fill-opacity:1;stroke:none;stroke-width:5.17111492;stroke-miterlimit:4;stroke-dasharray:none;stroke-opacity:1"
         d="m -597.18985,-91.85783 c 1.05338,-9.00254 -0.17176,-18.1255 -3.56343,-26.53104 -9.56366,-23.67327 -34.37609,-37.43773 -59.52295,-33.01978 l 10.06019,24.60657 10.61932,-4.28581 12.94356,32.07784 c 2.5769,6.38646 2.72253,11.79016 0.63648,16.66281 l -2.8e-4,0.001 c -1.44133,3.38899 -3.93306,6.37251 -7.45376,8.75025 1.16155,1.27654 1.69512,3.0036 1.45594,4.71284 -0.19972,1.40258 -0.90547,2.68372 -1.98399,3.60223 l 6.47263,15.89825 c 16.7253,-8.02167 28.17472,-24.0529 30.33629,-42.47598 z m -34.58504,44.2601 -6.64821,-16.32936 c -0.0511,-0.004 -0.1022,-0.01 -0.15274,-0.0159 -2.69514,-0.38197 -4.76288,-2.5857 -4.97367,-5.29962 -4.85685,1.1847 -9.30134,0.97065 -13.20686,-0.73784 l 0,-0.004 -0.001,-0.001 c -5.08808,-2.2418 -8.94179,-6.74254 -11.68506,-13.54126 l -12.46434,-30.89142 12.09784,-4.88052 -10.21037,-25.05677 c -22.63227,13.76083 -31.97336,41.8846 -22.07115,66.4514 11.02784,27.26465 41.81665,40.72515 69.31953,30.30573 z m -43.18473,-98.99826 10.4213,25.57222 10.04798,-4.05455 -10.34422,-25.30051 c -2.1512,0.55629 -4.26621,1.24457 -6.33281,2.06098 -1.28575,0.52506 -2.55064,1.09946 -3.79225,1.72186 z m 44.41939,59.14866 c 0.47225,-2.88018 -0.0199,-6.20943 -1.58583,-10.09112 l -10.45466,-25.91146 -30.88108,12.45842 10.16878,25.20399 c 2.2226,5.50842 5.13407,8.84098 8.67692,10.35962 3.54285,1.51863 7.93369,1.31918 13.40417,-0.88806 5.26551,-2.12459 8.43547,-4.93241 9.87836,-8.38752 l 5.6e-4,-0.004 0,-0.004 c 0.36722,-0.86407 0.63266,-1.77481 0.79008,-2.73489 z"
         id="path4605-8-9-0-0"
         inkscape:connector-curvature="0"
         sodipodi:nodetypes="ccccccccccccccccccccsccccccccccccccccsscccsccc" />
    </mask>
    <mask
       maskUnits="userSpaceOnUse"
       id="mask4603-9-4-4-5-4">
      <path
         style="fill:#ffffff;fill-opacity:1;stroke:none;stroke-width:5.17111492;stroke-miterlimit:4;stroke-dasharray:none;stroke-opacity:1"
         d="m -597.18985,-91.85783 c 1.05338,-9.00254 -0.17176,-18.1255 -3.56343,-26.53104 -9.56366,-23.67327 -34.37609,-37.43773 -59.52295,-33.01978 l 10.06019,24.60657 10.61932,-4.28581 12.94356,32.07784 c 2.5769,6.38646 2.72253,11.79016 0.63648,16.66281 l -2.8e-4,0.001 c -1.44133,3.38899 -3.93306,6.37251 -7.45376,8.75025 1.16155,1.27654 1.69512,3.0036 1.45594,4.71284 -0.19972,1.40258 -0.90547,2.68372 -1.98399,3.60223 l 6.47263,15.89825 c 16.7253,-8.02167 28.17472,-24.0529 30.33629,-42.47598 z m -34.58504,44.2601 -6.64821,-16.32936 c -0.0511,-0.004 -0.1022,-0.01 -0.15274,-0.0159 -2.69514,-0.38197 -4.76288,-2.5857 -4.97367,-5.29962 -4.85685,1.1847 -9.30134,0.97065 -13.20686,-0.73784 l 0,-0.004 -0.001,-0.001 c -5.08808,-2.2418 -8.94179,-6.74254 -11.68506,-13.54126 l -12.46434,-30.89142 12.09784,-4.88052 -10.21037,-25.05677 c -22.63227,13.76083 -31.97336,41.8846 -22.07115,66.4514 11.02784,27.26465 41.81665,40.72515 69.31953,30.30573 z m -43.18473,-98.99826 10.4213,25.57222 10.04798,-4.05455 -10.34422,-25.30051 c -2.1512,0.55629 -4.26621,1.24457 -6.33281,2.06098 -1.28575,0.52506 -2.55064,1.09946 -3.79225,1.72186 z m 44.41939,59.14866 c 0.47225,-2.88018 -0.0199,-6.20943 -1.58583,-10.09112 l -10.45466,-25.91146 -30.88108,12.45842 10.16878,25.20399 c 2.2226,5.50842 5.13407,8.84098 8.67692,10.35962 3.54285,1.51863 7.93369,1.31918 13.40417,-0.88806 5.26551,-2.12459 8.43547,-4.93241 9.87836,-8.38752 l 5.6e-4,-0.004 0,-0.004 c 0.36722,-0.86407 0.63266,-1.77481 0.79008,-2.73489 z"
         id="path4605-8-9-0-0-5"
         inkscape:connector-curvature="0"
         sodipodi:nodetypes="ccccccccccccccccccccsccccccccccccccccsscccsccc" />
    </mask>
    <mask
       maskUnits="userSpaceOnUse"
       id="mask4603-9-4-4-8">
      <path
         style="fill:#ffffff;fill-opacity:1;stroke:none;stroke-width:5.17111492;stroke-miterlimit:4;stroke-dasharray:none;stroke-opacity:1"
         d="m -597.18985,-91.85783 c 1.05338,-9.00254 -0.17176,-18.1255 -3.56343,-26.53104 -9.56366,-23.67327 -34.37609,-37.43773 -59.52295,-33.01978 l 10.06019,24.60657 10.61932,-4.28581 12.94356,32.07784 c 2.5769,6.38646 2.72253,11.79016 0.63648,16.66281 l -2.8e-4,0.001 c -1.44133,3.38899 -3.93306,6.37251 -7.45376,8.75025 1.16155,1.27654 1.69512,3.0036 1.45594,4.71284 -0.19972,1.40258 -0.90547,2.68372 -1.98399,3.60223 l 6.47263,15.89825 c 16.7253,-8.02167 28.17472,-24.0529 30.33629,-42.47598 z m -34.58504,44.2601 -6.64821,-16.32936 c -0.0511,-0.004 -0.1022,-0.01 -0.15274,-0.0159 -2.69514,-0.38197 -4.76288,-2.5857 -4.97367,-5.29962 -4.85685,1.1847 -9.30134,0.97065 -13.20686,-0.73784 l 0,-0.004 -0.001,-0.001 c -5.08808,-2.2418 -8.94179,-6.74254 -11.68506,-13.54126 l -12.46434,-30.89142 12.09784,-4.88052 -10.21037,-25.05677 c -22.63227,13.76083 -31.97336,41.8846 -22.07115,66.4514 11.02784,27.26465 41.81665,40.72515 69.31953,30.30573 z m -43.18473,-98.99826 10.4213,25.57222 10.04798,-4.05455 -10.34422,-25.30051 c -2.1512,0.55629 -4.26621,1.24457 -6.33281,2.06098 -1.28575,0.52506 -2.55064,1.09946 -3.79225,1.72186 z m 44.41939,59.14866 c 0.47225,-2.88018 -0.0199,-6.20943 -1.58583,-10.09112 l -10.45466,-25.91146 -30.88108,12.45842 10.16878,25.20399 c 2.2226,5.50842 5.13407,8.84098 8.67692,10.35962 3.54285,1.51863 7.93369,1.31918 13.40417,-0.88806 5.26551,-2.12459 8.43547,-4.93241 9.87836,-8.38752 l 5.6e-4,-0.004 0,-0.004 c 0.36722,-0.86407 0.63266,-1.77481 0.79008,-2.73489 z"
         id="path4605-8-9-0-9"
         inkscape:connector-curvature="0"
         sodipodi:nodetypes="ccccccccccccccccccccsccccccccccccccccsscccsccc" />
    </mask>
    <mask
       maskUnits="userSpaceOnUse"
       id="mask4603-9-4-4-5-4-7">
      <path
         style="fill:#ffffff;fill-opacity:1;stroke:none;stroke-width:5.17111492;stroke-miterlimit:4;stroke-dasharray:none;stroke-opacity:1"
         d="m -597.18985,-91.85783 c 1.05338,-9.00254 -0.17176,-18.1255 -3.56343,-26.53104 -9.56366,-23.67327 -34.37609,-37.43773 -59.52295,-33.01978 l 10.06019,24.60657 10.61932,-4.28581 12.94356,32.07784 c 2.5769,6.38646 2.72253,11.79016 0.63648,16.66281 l -2.8e-4,0.001 c -1.44133,3.38899 -3.93306,6.37251 -7.45376,8.75025 1.16155,1.27654 1.69512,3.0036 1.45594,4.71284 -0.19972,1.40258 -0.90547,2.68372 -1.98399,3.60223 l 6.47263,15.89825 c 16.7253,-8.02167 28.17472,-24.0529 30.33629,-42.47598 z m -34.58504,44.2601 -6.64821,-16.32936 c -0.0511,-0.004 -0.1022,-0.01 -0.15274,-0.0159 -2.69514,-0.38197 -4.76288,-2.5857 -4.97367,-5.29962 -4.85685,1.1847 -9.30134,0.97065 -13.20686,-0.73784 l 0,-0.004 -0.001,-0.001 c -5.08808,-2.2418 -8.94179,-6.74254 -11.68506,-13.54126 l -12.46434,-30.89142 12.09784,-4.88052 -10.21037,-25.05677 c -22.63227,13.76083 -31.97336,41.8846 -22.07115,66.4514 11.02784,27.26465 41.81665,40.72515 69.31953,30.30573 z m -43.18473,-98.99826 10.4213,25.57222 10.04798,-4.05455 -10.34422,-25.30051 c -2.1512,0.55629 -4.26621,1.24457 -6.33281,2.06098 -1.28575,0.52506 -2.55064,1.09946 -3.79225,1.72186 z m 44.41939,59.14866 c 0.47225,-2.88018 -0.0199,-6.20943 -1.58583,-10.09112 l -10.45466,-25.91146 -30.88108,12.45842 10.16878,25.20399 c 2.2226,5.50842 5.13407,8.84098 8.67692,10.35962 3.54285,1.51863 7.93369,1.31918 13.40417,-0.88806 5.26551,-2.12459 8.43547,-4.93241 9.87836,-8.38752 l 5.6e-4,-0.004 0,-0.004 c 0.36722,-0.86407 0.63266,-1.77481 0.79008,-2.73489 z"
         id="path4605-8-9-0-0-5-2"
         inkscape:connector-curvature="0"
         sodipodi:nodetypes="ccccccccccccccccccccsccccccccccccccccsscccsccc" />
    </mask>
    <mask
       maskUnits="userSpaceOnUse"
       id="mask4603-9-4-4-8-1">
      <path
         style="fill:#ffffff;fill-opacity:1;stroke:none;stroke-width:5.17111492;stroke-miterlimit:4;stroke-dasharray:none;stroke-opacity:1"
         d="m -597.18985,-91.85783 c 1.05338,-9.00254 -0.17176,-18.1255 -3.56343,-26.53104 -9.56366,-23.67327 -34.37609,-37.43773 -59.52295,-33.01978 l 10.06019,24.60657 10.61932,-4.28581 12.94356,32.07784 c 2.5769,6.38646 2.72253,11.79016 0.63648,16.66281 l -2.8e-4,0.001 c -1.44133,3.38899 -3.93306,6.37251 -7.45376,8.75025 1.16155,1.27654 1.69512,3.0036 1.45594,4.71284 -0.19972,1.40258 -0.90547,2.68372 -1.98399,3.60223 l 6.47263,15.89825 c 16.7253,-8.02167 28.17472,-24.0529 30.33629,-42.47598 z m -34.58504,44.2601 -6.64821,-16.32936 c -0.0511,-0.004 -0.1022,-0.01 -0.15274,-0.0159 -2.69514,-0.38197 -4.76288,-2.5857 -4.97367,-5.29962 -4.85685,1.1847 -9.30134,0.97065 -13.20686,-0.73784 l 0,-0.004 -0.001,-0.001 c -5.08808,-2.2418 -8.94179,-6.74254 -11.68506,-13.54126 l -12.46434,-30.89142 12.09784,-4.88052 -10.21037,-25.05677 c -22.63227,13.76083 -31.97336,41.8846 -22.07115,66.4514 11.02784,27.26465 41.81665,40.72515 69.31953,30.30573 z m -43.18473,-98.99826 10.4213,25.57222 10.04798,-4.05455 -10.34422,-25.30051 c -2.1512,0.55629 -4.26621,1.24457 -6.33281,2.06098 -1.28575,0.52506 -2.55064,1.09946 -3.79225,1.72186 z m 44.41939,59.14866 c 0.47225,-2.88018 -0.0199,-6.20943 -1.58583,-10.09112 l -10.45466,-25.91146 -30.88108,12.45842 10.16878,25.20399 c 2.2226,5.50842 5.13407,8.84098 8.67692,10.35962 3.54285,1.51863 7.93369,1.31918 13.40417,-0.88806 5.26551,-2.12459 8.43547,-4.93241 9.87836,-8.38752 l 5.6e-4,-0.004 0,-0.004 c 0.36722,-0.86407 0.63266,-1.77481 0.79008,-2.73489 z"
         id="path4605-8-9-0-9-4"
         inkscape:connector-curvature="0"
         sodipodi:nodetypes="ccccccccccccccccccccsccccccccccccccccsscccsccc" />
    </mask>
    <mask
       maskUnits="userSpaceOnUse"
       id="mask4603-9-4-4-5-4-7-6">
      <path
         style="fill:#ffffff;fill-opacity:1;stroke:none;stroke-width:5.17111492;stroke-miterlimit:4;stroke-dasharray:none;stroke-opacity:1"
         d="m -597.18985,-91.85783 c 1.05338,-9.00254 -0.17176,-18.1255 -3.56343,-26.53104 -9.56366,-23.67327 -34.37609,-37.43773 -59.52295,-33.01978 l 10.06019,24.60657 10.61932,-4.28581 12.94356,32.07784 c 2.5769,6.38646 2.72253,11.79016 0.63648,16.66281 l -2.8e-4,0.001 c -1.44133,3.38899 -3.93306,6.37251 -7.45376,8.75025 1.16155,1.27654 1.69512,3.0036 1.45594,4.71284 -0.19972,1.40258 -0.90547,2.68372 -1.98399,3.60223 l 6.47263,15.89825 c 16.7253,-8.02167 28.17472,-24.0529 30.33629,-42.47598 z m -34.58504,44.2601 -6.64821,-16.32936 c -0.0511,-0.004 -0.1022,-0.01 -0.15274,-0.0159 -2.69514,-0.38197 -4.76288,-2.5857 -4.97367,-5.29962 -4.85685,1.1847 -9.30134,0.97065 -13.20686,-0.73784 l 0,-0.004 -0.001,-0.001 c -5.08808,-2.2418 -8.94179,-6.74254 -11.68506,-13.54126 l -12.46434,-30.89142 12.09784,-4.88052 -10.21037,-25.05677 c -22.63227,13.76083 -31.97336,41.8846 -22.07115,66.4514 11.02784,27.26465 41.81665,40.72515 69.31953,30.30573 z m -43.18473,-98.99826 10.4213,25.57222 10.04798,-4.05455 -10.34422,-25.30051 c -2.1512,0.55629 -4.26621,1.24457 -6.33281,2.06098 -1.28575,0.52506 -2.55064,1.09946 -3.79225,1.72186 z m 44.41939,59.14866 c 0.47225,-2.88018 -0.0199,-6.20943 -1.58583,-10.09112 l -10.45466,-25.91146 -30.88108,12.45842 10.16878,25.20399 c 2.2226,5.50842 5.13407,8.84098 8.67692,10.35962 3.54285,1.51863 7.93369,1.31918 13.40417,-0.88806 5.26551,-2.12459 8.43547,-4.93241 9.87836,-8.38752 l 5.6e-4,-0.004 0,-0.004 c 0.36722,-0.86407 0.63266,-1.77481 0.79008,-2.73489 z"
         id="path4605-8-9-0-0-5-2-5"
         inkscape:connector-curvature="0"
         sodipodi:nodetypes="ccccccccccccccccccccsccccccccccccccccsscccsccc" />
    </mask>
    <mask
       maskUnits="userSpaceOnUse"
       id="mask4603-9-4-4-8-1-6">
      <path
         style="fill:#ffffff;fill-opacity:1;stroke:none;stroke-width:5.17111492;stroke-miterlimit:4;stroke-dasharray:none;stroke-opacity:1"
         d="m -597.18985,-91.85783 c 1.05338,-9.00254 -0.17176,-18.1255 -3.56343,-26.53104 -9.56366,-23.67327 -34.37609,-37.43773 -59.52295,-33.01978 l 10.06019,24.60657 10.61932,-4.28581 12.94356,32.07784 c 2.5769,6.38646 2.72253,11.79016 0.63648,16.66281 l -2.8e-4,0.001 c -1.44133,3.38899 -3.93306,6.37251 -7.45376,8.75025 1.16155,1.27654 1.69512,3.0036 1.45594,4.71284 -0.19972,1.40258 -0.90547,2.68372 -1.98399,3.60223 l 6.47263,15.89825 c 16.7253,-8.02167 28.17472,-24.0529 30.33629,-42.47598 z m -34.58504,44.2601 -6.64821,-16.32936 c -0.0511,-0.004 -0.1022,-0.01 -0.15274,-0.0159 -2.69514,-0.38197 -4.76288,-2.5857 -4.97367,-5.29962 -4.85685,1.1847 -9.30134,0.97065 -13.20686,-0.73784 l 0,-0.004 -0.001,-0.001 c -5.08808,-2.2418 -8.94179,-6.74254 -11.68506,-13.54126 l -12.46434,-30.89142 12.09784,-4.88052 -10.21037,-25.05677 c -22.63227,13.76083 -31.97336,41.8846 -22.07115,66.4514 11.02784,27.26465 41.81665,40.72515 69.31953,30.30573 z m -43.18473,-98.99826 10.4213,25.57222 10.04798,-4.05455 -10.34422,-25.30051 c -2.1512,0.55629 -4.26621,1.24457 -6.33281,2.06098 -1.28575,0.52506 -2.55064,1.09946 -3.79225,1.72186 z m 44.41939,59.14866 c 0.47225,-2.88018 -0.0199,-6.20943 -1.58583,-10.09112 l -10.45466,-25.91146 -30.88108,12.45842 10.16878,25.20399 c 2.2226,5.50842 5.13407,8.84098 8.67692,10.35962 3.54285,1.51863 7.93369,1.31918 13.40417,-0.88806 5.26551,-2.12459 8.43547,-4.93241 9.87836,-8.38752 l 5.6e-4,-0.004 0,-0.004 c 0.36722,-0.86407 0.63266,-1.77481 0.79008,-2.73489 z"
         id="path4605-8-9-0-9-4-3"
         inkscape:connector-curvature="0"
         sodipodi:nodetypes="ccccccccccccccccccccsccccccccccccccccsscccsccc" />
    </mask>
    <mask
       maskUnits="userSpaceOnUse"
       id="mask4603-9-4-4-5-4-7-6-4">
      <path
         style="fill:#ffffff;fill-opacity:1;stroke:none;stroke-width:5.17111492;stroke-miterlimit:4;stroke-dasharray:none;stroke-opacity:1"
         d="m -597.18985,-91.85783 c 1.05338,-9.00254 -0.17176,-18.1255 -3.56343,-26.53104 -9.56366,-23.67327 -34.37609,-37.43773 -59.52295,-33.01978 l 10.06019,24.60657 10.61932,-4.28581 12.94356,32.07784 c 2.5769,6.38646 2.72253,11.79016 0.63648,16.66281 l -2.8e-4,0.001 c -1.44133,3.38899 -3.93306,6.37251 -7.45376,8.75025 1.16155,1.27654 1.69512,3.0036 1.45594,4.71284 -0.19972,1.40258 -0.90547,2.68372 -1.98399,3.60223 l 6.47263,15.89825 c 16.7253,-8.02167 28.17472,-24.0529 30.33629,-42.47598 z m -34.58504,44.2601 -6.64821,-16.32936 c -0.0511,-0.004 -0.1022,-0.01 -0.15274,-0.0159 -2.69514,-0.38197 -4.76288,-2.5857 -4.97367,-5.29962 -4.85685,1.1847 -9.30134,0.97065 -13.20686,-0.73784 l 0,-0.004 -0.001,-0.001 c -5.08808,-2.2418 -8.94179,-6.74254 -11.68506,-13.54126 l -12.46434,-30.89142 12.09784,-4.88052 -10.21037,-25.05677 c -22.63227,13.76083 -31.97336,41.8846 -22.07115,66.4514 11.02784,27.26465 41.81665,40.72515 69.31953,30.30573 z m -43.18473,-98.99826 10.4213,25.57222 10.04798,-4.05455 -10.34422,-25.30051 c -2.1512,0.55629 -4.26621,1.24457 -6.33281,2.06098 -1.28575,0.52506 -2.55064,1.09946 -3.79225,1.72186 z m 44.41939,59.14866 c 0.47225,-2.88018 -0.0199,-6.20943 -1.58583,-10.09112 l -10.45466,-25.91146 -30.88108,12.45842 10.16878,25.20399 c 2.2226,5.50842 5.13407,8.84098 8.67692,10.35962 3.54285,1.51863 7.93369,1.31918 13.40417,-0.88806 5.26551,-2.12459 8.43547,-4.93241 9.87836,-8.38752 l 5.6e-4,-0.004 0,-0.004 c 0.36722,-0.86407 0.63266,-1.77481 0.79008,-2.73489 z"
         id="path4605-8-9-0-0-5-2-5-3"
         inkscape:connector-curvature="0"
         sodipodi:nodetypes="ccccccccccccccccccccsccccccccccccccccsscccsccc" />
    </mask>
    <mask
       maskUnits="userSpaceOnUse"
       id="mask4603-9-4-4-8-1-6-3">
      <path
         style="fill:#ffffff;fill-opacity:1;stroke:none;stroke-width:5.17111492;stroke-miterlimit:4;stroke-dasharray:none;stroke-opacity:1"
         d="m -597.18985,-91.85783 c 1.05338,-9.00254 -0.17176,-18.1255 -3.56343,-26.53104 -9.56366,-23.67327 -34.37609,-37.43773 -59.52295,-33.01978 l 10.06019,24.60657 10.61932,-4.28581 12.94356,32.07784 c 2.5769,6.38646 2.72253,11.79016 0.63648,16.66281 l -2.8e-4,0.001 c -1.44133,3.38899 -3.93306,6.37251 -7.45376,8.75025 1.16155,1.27654 1.69512,3.0036 1.45594,4.71284 -0.19972,1.40258 -0.90547,2.68372 -1.98399,3.60223 l 6.47263,15.89825 c 16.7253,-8.02167 28.17472,-24.0529 30.33629,-42.47598 z m -34.58504,44.2601 -6.64821,-16.32936 c -0.0511,-0.004 -0.1022,-0.01 -0.15274,-0.0159 -2.69514,-0.38197 -4.76288,-2.5857 -4.97367,-5.29962 -4.85685,1.1847 -9.30134,0.97065 -13.20686,-0.73784 l 0,-0.004 -0.001,-0.001 c -5.08808,-2.2418 -8.94179,-6.74254 -11.68506,-13.54126 l -12.46434,-30.89142 12.09784,-4.88052 -10.21037,-25.05677 c -22.63227,13.76083 -31.97336,41.8846 -22.07115,66.4514 11.02784,27.26465 41.81665,40.72515 69.31953,30.30573 z m -43.18473,-98.99826 10.4213,25.57222 10.04798,-4.05455 -10.34422,-25.30051 c -2.1512,0.55629 -4.26621,1.24457 -6.33281,2.06098 -1.28575,0.52506 -2.55064,1.09946 -3.79225,1.72186 z m 44.41939,59.14866 c 0.47225,-2.88018 -0.0199,-6.20943 -1.58583,-10.09112 l -10.45466,-25.91146 -30.88108,12.45842 10.16878,25.20399 c 2.2226,5.50842 5.13407,8.84098 8.67692,10.35962 3.54285,1.51863 7.93369,1.31918 13.40417,-0.88806 5.26551,-2.12459 8.43547,-4.93241 9.87836,-8.38752 l 5.6e-4,-0.004 0,-0.004 c 0.36722,-0.86407 0.63266,-1.77481 0.79008,-2.73489 z"
         id="path4605-8-9-0-9-4-3-8"
         inkscape:connector-curvature="0"
         sodipodi:nodetypes="ccccccccccccccccccccsccccccccccccccccsscccsccc" />
    </mask>
    <mask
       maskUnits="userSpaceOnUse"
       id="mask4603-9-4-4-5-4-7-1">
      <path
         style="fill:#ffffff;fill-opacity:1;stroke:none;stroke-width:5.17111492;stroke-miterlimit:4;stroke-dasharray:none;stroke-opacity:1"
         d="m -597.18985,-91.85783 c 1.05338,-9.00254 -0.17176,-18.1255 -3.56343,-26.53104 -9.56366,-23.67327 -34.37609,-37.43773 -59.52295,-33.01978 l 10.06019,24.60657 10.61932,-4.28581 12.94356,32.07784 c 2.5769,6.38646 2.72253,11.79016 0.63648,16.66281 l -2.8e-4,0.001 c -1.44133,3.38899 -3.93306,6.37251 -7.45376,8.75025 1.16155,1.27654 1.69512,3.0036 1.45594,4.71284 -0.19972,1.40258 -0.90547,2.68372 -1.98399,3.60223 l 6.47263,15.89825 c 16.7253,-8.02167 28.17472,-24.0529 30.33629,-42.47598 z m -34.58504,44.2601 -6.64821,-16.32936 c -0.0511,-0.004 -0.1022,-0.01 -0.15274,-0.0159 -2.69514,-0.38197 -4.76288,-2.5857 -4.97367,-5.29962 -4.85685,1.1847 -9.30134,0.97065 -13.20686,-0.73784 l 0,-0.004 -0.001,-0.001 c -5.08808,-2.2418 -8.94179,-6.74254 -11.68506,-13.54126 l -12.46434,-30.89142 12.09784,-4.88052 -10.21037,-25.05677 c -22.63227,13.76083 -31.97336,41.8846 -22.07115,66.4514 11.02784,27.26465 41.81665,40.72515 69.31953,30.30573 z m -43.18473,-98.99826 10.4213,25.57222 10.04798,-4.05455 -10.34422,-25.30051 c -2.1512,0.55629 -4.26621,1.24457 -6.33281,2.06098 -1.28575,0.52506 -2.55064,1.09946 -3.79225,1.72186 z m 44.41939,59.14866 c 0.47225,-2.88018 -0.0199,-6.20943 -1.58583,-10.09112 l -10.45466,-25.91146 -30.88108,12.45842 10.16878,25.20399 c 2.2226,5.50842 5.13407,8.84098 8.67692,10.35962 3.54285,1.51863 7.93369,1.31918 13.40417,-0.88806 5.26551,-2.12459 8.43547,-4.93241 9.87836,-8.38752 l 5.6e-4,-0.004 0,-0.004 c 0.36722,-0.86407 0.63266,-1.77481 0.79008,-2.73489 z"
         id="path4605-8-9-0-0-5-2-2"
         inkscape:connector-curvature="0"
         sodipodi:nodetypes="ccccccccccccccccccccsccccccccccccccccsscccsccc" />
    </mask>
    <mask
       maskUnits="userSpaceOnUse"
       id="mask4603-9-4-4-8-1-7">
      <path
         style="fill:#ffffff;fill-opacity:1;stroke:none;stroke-width:5.17111492;stroke-miterlimit:4;stroke-dasharray:none;stroke-opacity:1"
         d="m -597.18985,-91.85783 c 1.05338,-9.00254 -0.17176,-18.1255 -3.56343,-26.53104 -9.56366,-23.67327 -34.37609,-37.43773 -59.52295,-33.01978 l 10.06019,24.60657 10.61932,-4.28581 12.94356,32.07784 c 2.5769,6.38646 2.72253,11.79016 0.63648,16.66281 l -2.8e-4,0.001 c -1.44133,3.38899 -3.93306,6.37251 -7.45376,8.75025 1.16155,1.27654 1.69512,3.0036 1.45594,4.71284 -0.19972,1.40258 -0.90547,2.68372 -1.98399,3.60223 l 6.47263,15.89825 c 16.7253,-8.02167 28.17472,-24.0529 30.33629,-42.47598 z m -34.58504,44.2601 -6.64821,-16.32936 c -0.0511,-0.004 -0.1022,-0.01 -0.15274,-0.0159 -2.69514,-0.38197 -4.76288,-2.5857 -4.97367,-5.29962 -4.85685,1.1847 -9.30134,0.97065 -13.20686,-0.73784 l 0,-0.004 -0.001,-0.001 c -5.08808,-2.2418 -8.94179,-6.74254 -11.68506,-13.54126 l -12.46434,-30.89142 12.09784,-4.88052 -10.21037,-25.05677 c -22.63227,13.76083 -31.97336,41.8846 -22.07115,66.4514 11.02784,27.26465 41.81665,40.72515 69.31953,30.30573 z m -43.18473,-98.99826 10.4213,25.57222 10.04798,-4.05455 -10.34422,-25.30051 c -2.1512,0.55629 -4.26621,1.24457 -6.33281,2.06098 -1.28575,0.52506 -2.55064,1.09946 -3.79225,1.72186 z m 44.41939,59.14866 c 0.47225,-2.88018 -0.0199,-6.20943 -1.58583,-10.09112 l -10.45466,-25.91146 -30.88108,12.45842 10.16878,25.20399 c 2.2226,5.50842 5.13407,8.84098 8.67692,10.35962 3.54285,1.51863 7.93369,1.31918 13.40417,-0.88806 5.26551,-2.12459 8.43547,-4.93241 9.87836,-8.38752 l 5.6e-4,-0.004 0,-0.004 c 0.36722,-0.86407 0.63266,-1.77481 0.79008,-2.73489 z"
         id="path4605-8-9-0-9-4-2"
         inkscape:connector-curvature="0"
         sodipodi:nodetypes="ccccccccccccccccccccsccccccccccccccccsscccsccc" />
    </mask>
    <mask
       maskUnits="userSpaceOnUse"
       id="mask4603-9-4-4-5-4-5">
      <path
         style="fill:#ffffff;fill-opacity:1;stroke:none;stroke-width:5.17111492;stroke-miterlimit:4;stroke-dasharray:none;stroke-opacity:1"
         d="m -597.18985,-91.85783 c 1.05338,-9.00254 -0.17176,-18.1255 -3.56343,-26.53104 -9.56366,-23.67327 -34.37609,-37.43773 -59.52295,-33.01978 l 10.06019,24.60657 10.61932,-4.28581 12.94356,32.07784 c 2.5769,6.38646 2.72253,11.79016 0.63648,16.66281 l -2.8e-4,0.001 c -1.44133,3.38899 -3.93306,6.37251 -7.45376,8.75025 1.16155,1.27654 1.69512,3.0036 1.45594,4.71284 -0.19972,1.40258 -0.90547,2.68372 -1.98399,3.60223 l 6.47263,15.89825 c 16.7253,-8.02167 28.17472,-24.0529 30.33629,-42.47598 z m -34.58504,44.2601 -6.64821,-16.32936 c -0.0511,-0.004 -0.1022,-0.01 -0.15274,-0.0159 -2.69514,-0.38197 -4.76288,-2.5857 -4.97367,-5.29962 -4.85685,1.1847 -9.30134,0.97065 -13.20686,-0.73784 l 0,-0.004 -0.001,-0.001 c -5.08808,-2.2418 -8.94179,-6.74254 -11.68506,-13.54126 l -12.46434,-30.89142 12.09784,-4.88052 -10.21037,-25.05677 c -22.63227,13.76083 -31.97336,41.8846 -22.07115,66.4514 11.02784,27.26465 41.81665,40.72515 69.31953,30.30573 z m -43.18473,-98.99826 10.4213,25.57222 10.04798,-4.05455 -10.34422,-25.30051 c -2.1512,0.55629 -4.26621,1.24457 -6.33281,2.06098 -1.28575,0.52506 -2.55064,1.09946 -3.79225,1.72186 z m 44.41939,59.14866 c 0.47225,-2.88018 -0.0199,-6.20943 -1.58583,-10.09112 l -10.45466,-25.91146 -30.88108,12.45842 10.16878,25.20399 c 2.2226,5.50842 5.13407,8.84098 8.67692,10.35962 3.54285,1.51863 7.93369,1.31918 13.40417,-0.88806 5.26551,-2.12459 8.43547,-4.93241 9.87836,-8.38752 l 5.6e-4,-0.004 0,-0.004 c 0.36722,-0.86407 0.63266,-1.77481 0.79008,-2.73489 z"
         id="path4605-8-9-0-0-5-5"
         inkscape:connector-curvature="0"
         sodipodi:nodetypes="ccccccccccccccccccccsccccccccccccccccsscccsccc" />
    </mask>
    <mask
       maskUnits="userSpaceOnUse"
       id="mask4603-9-4-4-8-8">
      <path
         style="fill:#ffffff;fill-opacity:1;stroke:none;stroke-width:5.17111492;stroke-miterlimit:4;stroke-dasharray:none;stroke-opacity:1"
         d="m -597.18985,-91.85783 c 1.05338,-9.00254 -0.17176,-18.1255 -3.56343,-26.53104 -9.56366,-23.67327 -34.37609,-37.43773 -59.52295,-33.01978 l 10.06019,24.60657 10.61932,-4.28581 12.94356,32.07784 c 2.5769,6.38646 2.72253,11.79016 0.63648,16.66281 l -2.8e-4,0.001 c -1.44133,3.38899 -3.93306,6.37251 -7.45376,8.75025 1.16155,1.27654 1.69512,3.0036 1.45594,4.71284 -0.19972,1.40258 -0.90547,2.68372 -1.98399,3.60223 l 6.47263,15.89825 c 16.7253,-8.02167 28.17472,-24.0529 30.33629,-42.47598 z m -34.58504,44.2601 -6.64821,-16.32936 c -0.0511,-0.004 -0.1022,-0.01 -0.15274,-0.0159 -2.69514,-0.38197 -4.76288,-2.5857 -4.97367,-5.29962 -4.85685,1.1847 -9.30134,0.97065 -13.20686,-0.73784 l 0,-0.004 -0.001,-0.001 c -5.08808,-2.2418 -8.94179,-6.74254 -11.68506,-13.54126 l -12.46434,-30.89142 12.09784,-4.88052 -10.21037,-25.05677 c -22.63227,13.76083 -31.97336,41.8846 -22.07115,66.4514 11.02784,27.26465 41.81665,40.72515 69.31953,30.30573 z m -43.18473,-98.99826 10.4213,25.57222 10.04798,-4.05455 -10.34422,-25.30051 c -2.1512,0.55629 -4.26621,1.24457 -6.33281,2.06098 -1.28575,0.52506 -2.55064,1.09946 -3.79225,1.72186 z m 44.41939,59.14866 c 0.47225,-2.88018 -0.0199,-6.20943 -1.58583,-10.09112 l -10.45466,-25.91146 -30.88108,12.45842 10.16878,25.20399 c 2.2226,5.50842 5.13407,8.84098 8.67692,10.35962 3.54285,1.51863 7.93369,1.31918 13.40417,-0.88806 5.26551,-2.12459 8.43547,-4.93241 9.87836,-8.38752 l 5.6e-4,-0.004 0,-0.004 c 0.36722,-0.86407 0.63266,-1.77481 0.79008,-2.73489 z"
         id="path4605-8-9-0-9-3"
         inkscape:connector-curvature="0"
         sodipodi:nodetypes="ccccccccccccccccccccsccccccccccccccccsscccsccc" />
    </mask>
    <mask
       maskUnits="userSpaceOnUse"
       id="mask4603-9-4-4-5-4-7-6-4-5">
      <path
         style="fill:#ffffff;fill-opacity:1;stroke:none;stroke-width:5.17111492;stroke-miterlimit:4;stroke-dasharray:none;stroke-opacity:1"
         d="m -597.18985,-91.85783 c 1.05338,-9.00254 -0.17176,-18.1255 -3.56343,-26.53104 -9.56366,-23.67327 -34.37609,-37.43773 -59.52295,-33.01978 l 10.06019,24.60657 10.61932,-4.28581 12.94356,32.07784 c 2.5769,6.38646 2.72253,11.79016 0.63648,16.66281 l -2.8e-4,0.001 c -1.44133,3.38899 -3.93306,6.37251 -7.45376,8.75025 1.16155,1.27654 1.69512,3.0036 1.45594,4.71284 -0.19972,1.40258 -0.90547,2.68372 -1.98399,3.60223 l 6.47263,15.89825 c 16.7253,-8.02167 28.17472,-24.0529 30.33629,-42.47598 z m -34.58504,44.2601 -6.64821,-16.32936 c -0.0511,-0.004 -0.1022,-0.01 -0.15274,-0.0159 -2.69514,-0.38197 -4.76288,-2.5857 -4.97367,-5.29962 -4.85685,1.1847 -9.30134,0.97065 -13.20686,-0.73784 l 0,-0.004 -0.001,-0.001 c -5.08808,-2.2418 -8.94179,-6.74254 -11.68506,-13.54126 l -12.46434,-30.89142 12.09784,-4.88052 -10.21037,-25.05677 c -22.63227,13.76083 -31.97336,41.8846 -22.07115,66.4514 11.02784,27.26465 41.81665,40.72515 69.31953,30.30573 z m -43.18473,-98.99826 10.4213,25.57222 10.04798,-4.05455 -10.34422,-25.30051 c -2.1512,0.55629 -4.26621,1.24457 -6.33281,2.06098 -1.28575,0.52506 -2.55064,1.09946 -3.79225,1.72186 z m 44.41939,59.14866 c 0.47225,-2.88018 -0.0199,-6.20943 -1.58583,-10.09112 l -10.45466,-25.91146 -30.88108,12.45842 10.16878,25.20399 c 2.2226,5.50842 5.13407,8.84098 8.67692,10.35962 3.54285,1.51863 7.93369,1.31918 13.40417,-0.88806 5.26551,-2.12459 8.43547,-4.93241 9.87836,-8.38752 l 5.6e-4,-0.004 0,-0.004 c 0.36722,-0.86407 0.63266,-1.77481 0.79008,-2.73489 z"
         id="path4605-8-9-0-0-5-2-5-3-7"
         inkscape:connector-curvature="0"
         sodipodi:nodetypes="ccccccccccccccccccccsccccccccccccccccsscccsccc" />
    </mask>
    <mask
       maskUnits="userSpaceOnUse"
       id="mask4603-9-4-4-8-1-6-3-4">
      <path
         style="fill:#ffffff;fill-opacity:1;stroke:none;stroke-width:5.17111492;stroke-miterlimit:4;stroke-dasharray:none;stroke-opacity:1"
         d="m -597.18985,-91.85783 c 1.05338,-9.00254 -0.17176,-18.1255 -3.56343,-26.53104 -9.56366,-23.67327 -34.37609,-37.43773 -59.52295,-33.01978 l 10.06019,24.60657 10.61932,-4.28581 12.94356,32.07784 c 2.5769,6.38646 2.72253,11.79016 0.63648,16.66281 l -2.8e-4,0.001 c -1.44133,3.38899 -3.93306,6.37251 -7.45376,8.75025 1.16155,1.27654 1.69512,3.0036 1.45594,4.71284 -0.19972,1.40258 -0.90547,2.68372 -1.98399,3.60223 l 6.47263,15.89825 c 16.7253,-8.02167 28.17472,-24.0529 30.33629,-42.47598 z m -34.58504,44.2601 -6.64821,-16.32936 c -0.0511,-0.004 -0.1022,-0.01 -0.15274,-0.0159 -2.69514,-0.38197 -4.76288,-2.5857 -4.97367,-5.29962 -4.85685,1.1847 -9.30134,0.97065 -13.20686,-0.73784 l 0,-0.004 -0.001,-0.001 c -5.08808,-2.2418 -8.94179,-6.74254 -11.68506,-13.54126 l -12.46434,-30.89142 12.09784,-4.88052 -10.21037,-25.05677 c -22.63227,13.76083 -31.97336,41.8846 -22.07115,66.4514 11.02784,27.26465 41.81665,40.72515 69.31953,30.30573 z m -43.18473,-98.99826 10.4213,25.57222 10.04798,-4.05455 -10.34422,-25.30051 c -2.1512,0.55629 -4.26621,1.24457 -6.33281,2.06098 -1.28575,0.52506 -2.55064,1.09946 -3.79225,1.72186 z m 44.41939,59.14866 c 0.47225,-2.88018 -0.0199,-6.20943 -1.58583,-10.09112 l -10.45466,-25.91146 -30.88108,12.45842 10.16878,25.20399 c 2.2226,5.50842 5.13407,8.84098 8.67692,10.35962 3.54285,1.51863 7.93369,1.31918 13.40417,-0.88806 5.26551,-2.12459 8.43547,-4.93241 9.87836,-8.38752 l 5.6e-4,-0.004 0,-0.004 c 0.36722,-0.86407 0.63266,-1.77481 0.79008,-2.73489 z"
         id="path4605-8-9-0-9-4-3-8-2"
         inkscape:connector-curvature="0"
         sodipodi:nodetypes="ccccccccccccccccccccsccccccccccccccccsscccsccc" />
    </mask>
    <mask
       maskUnits="userSpaceOnUse"
       id="mask4603-9-4-4-5-4-7-1-1">
      <path
         style="fill:#ffffff;fill-opacity:1;stroke:none;stroke-width:5.17111492;stroke-miterlimit:4;stroke-dasharray:none;stroke-opacity:1"
         d="m -597.18985,-91.85783 c 1.05338,-9.00254 -0.17176,-18.1255 -3.56343,-26.53104 -9.56366,-23.67327 -34.37609,-37.43773 -59.52295,-33.01978 l 10.06019,24.60657 10.61932,-4.28581 12.94356,32.07784 c 2.5769,6.38646 2.72253,11.79016 0.63648,16.66281 l -2.8e-4,0.001 c -1.44133,3.38899 -3.93306,6.37251 -7.45376,8.75025 1.16155,1.27654 1.69512,3.0036 1.45594,4.71284 -0.19972,1.40258 -0.90547,2.68372 -1.98399,3.60223 l 6.47263,15.89825 c 16.7253,-8.02167 28.17472,-24.0529 30.33629,-42.47598 z m -34.58504,44.2601 -6.64821,-16.32936 c -0.0511,-0.004 -0.1022,-0.01 -0.15274,-0.0159 -2.69514,-0.38197 -4.76288,-2.5857 -4.97367,-5.29962 -4.85685,1.1847 -9.30134,0.97065 -13.20686,-0.73784 l 0,-0.004 -0.001,-0.001 c -5.08808,-2.2418 -8.94179,-6.74254 -11.68506,-13.54126 l -12.46434,-30.89142 12.09784,-4.88052 -10.21037,-25.05677 c -22.63227,13.76083 -31.97336,41.8846 -22.07115,66.4514 11.02784,27.26465 41.81665,40.72515 69.31953,30.30573 z m -43.18473,-98.99826 10.4213,25.57222 10.04798,-4.05455 -10.34422,-25.30051 c -2.1512,0.55629 -4.26621,1.24457 -6.33281,2.06098 -1.28575,0.52506 -2.55064,1.09946 -3.79225,1.72186 z m 44.41939,59.14866 c 0.47225,-2.88018 -0.0199,-6.20943 -1.58583,-10.09112 l -10.45466,-25.91146 -30.88108,12.45842 10.16878,25.20399 c 2.2226,5.50842 5.13407,8.84098 8.67692,10.35962 3.54285,1.51863 7.93369,1.31918 13.40417,-0.88806 5.26551,-2.12459 8.43547,-4.93241 9.87836,-8.38752 l 5.6e-4,-0.004 0,-0.004 c 0.36722,-0.86407 0.63266,-1.77481 0.79008,-2.73489 z"
         id="path4605-8-9-0-0-5-2-2-9"
         inkscape:connector-curvature="0"
         sodipodi:nodetypes="ccccccccccccccccccccsccccccccccccccccsscccsccc" />
    </mask>
    <mask
       maskUnits="userSpaceOnUse"
       id="mask4603-9-4-4-8-1-7-9">
      <path
         style="fill:#ffffff;fill-opacity:1;stroke:none;stroke-width:5.17111492;stroke-miterlimit:4;stroke-dasharray:none;stroke-opacity:1"
         d="m -597.18985,-91.85783 c 1.05338,-9.00254 -0.17176,-18.1255 -3.56343,-26.53104 -9.56366,-23.67327 -34.37609,-37.43773 -59.52295,-33.01978 l 10.06019,24.60657 10.61932,-4.28581 12.94356,32.07784 c 2.5769,6.38646 2.72253,11.79016 0.63648,16.66281 l -2.8e-4,0.001 c -1.44133,3.38899 -3.93306,6.37251 -7.45376,8.75025 1.16155,1.27654 1.69512,3.0036 1.45594,4.71284 -0.19972,1.40258 -0.90547,2.68372 -1.98399,3.60223 l 6.47263,15.89825 c 16.7253,-8.02167 28.17472,-24.0529 30.33629,-42.47598 z m -34.58504,44.2601 -6.64821,-16.32936 c -0.0511,-0.004 -0.1022,-0.01 -0.15274,-0.0159 -2.69514,-0.38197 -4.76288,-2.5857 -4.97367,-5.29962 -4.85685,1.1847 -9.30134,0.97065 -13.20686,-0.73784 l 0,-0.004 -0.001,-0.001 c -5.08808,-2.2418 -8.94179,-6.74254 -11.68506,-13.54126 l -12.46434,-30.89142 12.09784,-4.88052 -10.21037,-25.05677 c -22.63227,13.76083 -31.97336,41.8846 -22.07115,66.4514 11.02784,27.26465 41.81665,40.72515 69.31953,30.30573 z m -43.18473,-98.99826 10.4213,25.57222 10.04798,-4.05455 -10.34422,-25.30051 c -2.1512,0.55629 -4.26621,1.24457 -6.33281,2.06098 -1.28575,0.52506 -2.55064,1.09946 -3.79225,1.72186 z m 44.41939,59.14866 c 0.47225,-2.88018 -0.0199,-6.20943 -1.58583,-10.09112 l -10.45466,-25.91146 -30.88108,12.45842 10.16878,25.20399 c 2.2226,5.50842 5.13407,8.84098 8.67692,10.35962 3.54285,1.51863 7.93369,1.31918 13.40417,-0.88806 5.26551,-2.12459 8.43547,-4.93241 9.87836,-8.38752 l 5.6e-4,-0.004 0,-0.004 c 0.36722,-0.86407 0.63266,-1.77481 0.79008,-2.73489 z"
         id="path4605-8-9-0-9-4-2-7"
         inkscape:connector-curvature="0"
         sodipodi:nodetypes="ccccccccccccccccccccsccccccccccccccccsscccsccc" />
    </mask>
    <mask
       maskUnits="userSpaceOnUse"
       id="mask4603-9-4-4-5-4-5-6">
      <path
         style="fill:#ffffff;fill-opacity:1;stroke:none;stroke-width:5.17111492;stroke-miterlimit:4;stroke-dasharray:none;stroke-opacity:1"
         d="m -597.18985,-91.85783 c 1.05338,-9.00254 -0.17176,-18.1255 -3.56343,-26.53104 -9.56366,-23.67327 -34.37609,-37.43773 -59.52295,-33.01978 l 10.06019,24.60657 10.61932,-4.28581 12.94356,32.07784 c 2.5769,6.38646 2.72253,11.79016 0.63648,16.66281 l -2.8e-4,0.001 c -1.44133,3.38899 -3.93306,6.37251 -7.45376,8.75025 1.16155,1.27654 1.69512,3.0036 1.45594,4.71284 -0.19972,1.40258 -0.90547,2.68372 -1.98399,3.60223 l 6.47263,15.89825 c 16.7253,-8.02167 28.17472,-24.0529 30.33629,-42.47598 z m -34.58504,44.2601 -6.64821,-16.32936 c -0.0511,-0.004 -0.1022,-0.01 -0.15274,-0.0159 -2.69514,-0.38197 -4.76288,-2.5857 -4.97367,-5.29962 -4.85685,1.1847 -9.30134,0.97065 -13.20686,-0.73784 l 0,-0.004 -0.001,-0.001 c -5.08808,-2.2418 -8.94179,-6.74254 -11.68506,-13.54126 l -12.46434,-30.89142 12.09784,-4.88052 -10.21037,-25.05677 c -22.63227,13.76083 -31.97336,41.8846 -22.07115,66.4514 11.02784,27.26465 41.81665,40.72515 69.31953,30.30573 z m -43.18473,-98.99826 10.4213,25.57222 10.04798,-4.05455 -10.34422,-25.30051 c -2.1512,0.55629 -4.26621,1.24457 -6.33281,2.06098 -1.28575,0.52506 -2.55064,1.09946 -3.79225,1.72186 z m 44.41939,59.14866 c 0.47225,-2.88018 -0.0199,-6.20943 -1.58583,-10.09112 l -10.45466,-25.91146 -30.88108,12.45842 10.16878,25.20399 c 2.2226,5.50842 5.13407,8.84098 8.67692,10.35962 3.54285,1.51863 7.93369,1.31918 13.40417,-0.88806 5.26551,-2.12459 8.43547,-4.93241 9.87836,-8.38752 l 5.6e-4,-0.004 0,-0.004 c 0.36722,-0.86407 0.63266,-1.77481 0.79008,-2.73489 z"
         id="path4605-8-9-0-0-5-5-1"
         inkscape:connector-curvature="0"
         sodipodi:nodetypes="ccccccccccccccccccccsccccccccccccccccsscccsccc" />
    </mask>
    <mask
       maskUnits="userSpaceOnUse"
       id="mask4603-9-4-4-8-8-9">
      <path
         style="fill:#ffffff;fill-opacity:1;stroke:none;stroke-width:5.17111492;stroke-miterlimit:4;stroke-dasharray:none;stroke-opacity:1"
         d="m -597.18985,-91.85783 c 1.05338,-9.00254 -0.17176,-18.1255 -3.56343,-26.53104 -9.56366,-23.67327 -34.37609,-37.43773 -59.52295,-33.01978 l 10.06019,24.60657 10.61932,-4.28581 12.94356,32.07784 c 2.5769,6.38646 2.72253,11.79016 0.63648,16.66281 l -2.8e-4,0.001 c -1.44133,3.38899 -3.93306,6.37251 -7.45376,8.75025 1.16155,1.27654 1.69512,3.0036 1.45594,4.71284 -0.19972,1.40258 -0.90547,2.68372 -1.98399,3.60223 l 6.47263,15.89825 c 16.7253,-8.02167 28.17472,-24.0529 30.33629,-42.47598 z m -34.58504,44.2601 -6.64821,-16.32936 c -0.0511,-0.004 -0.1022,-0.01 -0.15274,-0.0159 -2.69514,-0.38197 -4.76288,-2.5857 -4.97367,-5.29962 -4.85685,1.1847 -9.30134,0.97065 -13.20686,-0.73784 l 0,-0.004 -0.001,-0.001 c -5.08808,-2.2418 -8.94179,-6.74254 -11.68506,-13.54126 l -12.46434,-30.89142 12.09784,-4.88052 -10.21037,-25.05677 c -22.63227,13.76083 -31.97336,41.8846 -22.07115,66.4514 11.02784,27.26465 41.81665,40.72515 69.31953,30.30573 z m -43.18473,-98.99826 10.4213,25.57222 10.04798,-4.05455 -10.34422,-25.30051 c -2.1512,0.55629 -4.26621,1.24457 -6.33281,2.06098 -1.28575,0.52506 -2.55064,1.09946 -3.79225,1.72186 z m 44.41939,59.14866 c 0.47225,-2.88018 -0.0199,-6.20943 -1.58583,-10.09112 l -10.45466,-25.91146 -30.88108,12.45842 10.16878,25.20399 c 2.2226,5.50842 5.13407,8.84098 8.67692,10.35962 3.54285,1.51863 7.93369,1.31918 13.40417,-0.88806 5.26551,-2.12459 8.43547,-4.93241 9.87836,-8.38752 l 5.6e-4,-0.004 0,-0.004 c 0.36722,-0.86407 0.63266,-1.77481 0.79008,-2.73489 z"
         id="path4605-8-9-0-9-3-3"
         inkscape:connector-curvature="0"
         sodipodi:nodetypes="ccccccccccccccccccccsccccccccccccccccsscccsccc" />
    </mask>
  </defs>
  <sodipodi:namedview
     pagecolor="#ffffff"
     bordercolor="#666666"
     borderopacity="1"
     objecttolerance="10"
     gridtolerance="10"
     guidetolerance="10"
     inkscape:pageopacity="0"
     inkscape:pageshadow="2"
     inkscape:window-width="1366"
     inkscape:window-height="704"
     id="namedview3392"
     showgrid="false"
     inkscape:zoom="5.687333"
     inkscape:cx="16.533263"
     inkscape:cy="25.319834"
     inkscape:window-x="0"
     inkscape:window-y="27"
     inkscape:window-maximized="1"
     inkscape:current-layer="layer7"
     units="px"
     inkscape:document-units="in"
     showguides="true"
     fit-margin-top="0"
     fit-margin-left="0"
     fit-margin-right="0"
     fit-margin-bottom="0">
    <inkscape:grid
       type="xygrid"
       id="grid4343"
       originx="-0.41329661"
       originy="-38.242453" />
  </sodipodi:namedview>
  <g
     transform="matrix(0.19745628,-0.11400144,0.11400144,0.19745628,-88.339203,-293.61613)"
     id="text4369-4-2-6-7"
     style="font-style:normal;font-variant:normal;font-weight:300;font-stretch:normal;font-size:265.9624939px;line-height:125%;font-family:'Open Sans';-inkscape-font-specification:'Open Sans, Light';text-align:start;letter-spacing:0px;word-spacing:0px;writing-mode:lr-tb;text-anchor:start;fill:#ffffff;fill-opacity:1;stroke:none;stroke-width:1px;stroke-linecap:butt;stroke-linejoin:miter;stroke-opacity:1" />
  <g
     inkscape:groupmode="layer"
     id="layer1"
     inkscape:label="Text"
     style="display:inline"
     transform="translate(-0.41329662,-1205.4192)" />
  <g
     inkscape:groupmode="layer"
     id="layer2"
     inkscape:label="RustDot"
     transform="translate(-0.41329662,-1205.4192)" />
  <g
     inkscape:groupmode="layer"
     id="layer4"
     inkscape:label="Card"
     transform="translate(-0.41329662,-1205.4192)">
    <g
       inkscape:groupmode="layer"
       id="layer6"
       inkscape:label="NameEtcText" />
    <g
       inkscape:groupmode="layer"
       id="layer7"
       inkscape:label="Logo">
      <path
         style="fill:#d6532b;fill-opacity:1;stroke:none;stroke-width:5.17111492;stroke-miterlimit:4;stroke-dasharray:none;stroke-opacity:1"
         d="m 9.5296348,1205.4746 c -1.3594221,-0.1591 -2.7370438,0.026 -4.006304,0.5381 -3.5747583,1.4441 -5.6532579,5.1909 -4.98611853,8.9883 l 3.71567633,-1.5192 -0.6471522,-1.6036 4.8438838,-1.9545 c 0.9643758,-0.3891 1.7803518,-0.4111 2.5161478,-0.096 l 2.02e-4,0 c 0.511763,0.2177 0.962286,0.5939 1.321336,1.1256 0.192754,-0.1754 0.453556,-0.256 0.711663,-0.2199 0.211796,0.031 0.405257,0.1367 0.54395,0.2996 l 2.400711,-0.9774 c -1.211326,-2.5256 -3.63209,-4.2545 -6.4140631,-4.5809 z m 6.6834592,5.2225 -2.465793,1.0039 c 0,0.01 0,0.015 -0.0034,0.023 -0.0577,0.407 -0.390463,0.7193 -0.800271,0.7511 0.178902,0.7334 0.146579,1.4045 -0.111425,1.9943 l 0,0 -2.03e-4,2e-4 c -0.338524,0.7683 -1.018168,1.3502 -2.044794,1.7645 l -4.6647521,1.8822 -0.7369704,-1.8269 -3.7836575,1.5419 c 2.0779262,3.4175 6.3247418,4.8281 10.03442,3.3328 4.117092,-1.6653 6.149686,-6.3145 4.576311,-10.4676 z m -14.9491536,6.5211 3.861514,-1.5737 -0.6122686,-1.5173 -3.82046283,1.562 c 0.0839909,0.3249 0.1879344,0.6442 0.31119053,0.9564 0.079306,0.1941 0.1660261,0.3851 0.2600269,0.5726 z m 8.9316876,-6.7076 c -0.434918,-0.071 -0.9376488,0.01 -1.5237972,0.2395 l -3.91274,1.5787 1.8812585,4.6632 3.8059367,-1.5356 c 0.831784,-0.3356 1.33502,-0.7752 1.564343,-1.3102 0.229323,-0.535 0.199191,-1.198 -0.134109,-2.0241 -0.320829,-0.7951 -0.744827,-1.2738 -1.266567,-1.4917 l 0,-10e-5 0,0 c -0.130468,-0.055 -0.267982,-0.096 -0.412977,-0.1193 z"
         id="path4427-1-8-8-0-6-6-7"
         inkscape:connector-curvature="0"
         sodipodi:nodetypes="ccccccccccccccccccccsccccccccccccccccsscccsccc" />
      <text
         xml:space="preserve"
         style="font-style:normal;font-weight:normal;font-size:40px;line-height:125%;font-family:sans-serif;letter-spacing:0px;word-spacing:0px;fill:#000000;fill-opacity:1;stroke:none;stroke-width:1px;stroke-linecap:butt;stroke-linejoin:miter;stroke-opacity:1"
         x="382.246"
         y="429.33185"
         id="text4432"
         sodipodi:linespacing="125%"><tspan
           sodipodi:role="line"
           id="tspan4434"
           x="382.246"
           y="429.33185" /></text>
    </g>
    <g
       inkscape:groupmode="layer"
       id="layer8"
       inkscape:label="LogoNoText" />
  </g>
  <g
     inkscape:groupmode="layer"
     id="layer3"
     inkscape:label="LtGreyDot"
     transform="translate(-0.41329662,-1205.4192)" />
</svg>
